<?xml version="1.0" standalone="no"?>
<!DOCTYPE svg PUBLIC "-//W3C//DTD SVG 20010904//EN"
 "http://www.w3.org/TR/2001/REC-SVG-20010904/DTD/svg10.dtd">
<svg version="1.0" xmlns="http://www.w3.org/2000/svg"
 width="262.000000pt" height="191.000000pt" viewBox="0 0 262.000000 191.000000"
 preserveAspectRatio="xMidYMid meet">
<metadata>
Created by potrace 1.10, written by Peter Selinger 2001-2011
</metadata>
<g transform="translate(0.000000,191.000000) scale(0.100000,-0.100000)"
fill="#000000" stroke="none">
<path d="M927 1760 c-23 -27 -32 -30 -84 -30 -76 0 -136 -32 -141 -74 -2 -16
2 -32 9 -36 9 -6 -11 -43 -68 -132 -44 -67 -107 -170 -140 -228 -33 -58 -91
-157 -128 -220 -97 -165 -215 -407 -215 -441 0 -62 44 -122 104 -142 4 -1 -1
-33 -13 -71 -27 -88 -28 -149 -1 -176 50 -50 113 -4 170 123 l34 75 61 4 c33
2 110 -2 170 -9 295 -33 331 -35 636 -30 343 5 484 20 679 73 87 23 106 25
139 15 21 -6 54 -11 74 -11 34 0 37 -2 71 -74 35 -72 74 -116 102 -116 8 0 23
9 34 20 26 26 26 86 1 158 l-18 53 33 14 c37 15 64 59 64 103 0 56 -226 475
-408 756 -53 83 -62 103 -54 121 21 45 -35 85 -119 85 -43 0 -54 4 -71 25 -39
50 -108 21 -93 -38 5 -20 1 -26 -25 -37 -59 -24 -82 -95 -42 -127 26 -22 4
-28 -108 -31 -148 -5 -297 33 -428 108 -52 30 -52 31 -34 48 48 42 26 114 -46
151 -35 18 -38 23 -34 54 8 68 -65 93 -111 37z m71 -37 c2 -8 -6 -13 -22 -13
-25 0 -33 10 -19 24 10 10 36 3 41 -11z m-48 -48 c79 -21 169 -89 147 -111 -4
-5 -23 9 -43 29 -65 66 -191 95 -271 62 -20 -8 -38 -13 -41 -10 -8 8 3 16 45
30 50 18 95 18 163 0z m-7 -46 c22 -6 54 -25 72 -42 l32 -32 -27 -70 c-28 -68
-29 -69 -39 -42 -13 33 -37 38 -26 5 23 -71 13 -119 -13 -63 -11 24 -23 31
-34 19 -4 -3 3 -26 14 -50 19 -43 19 -47 2 -92 -24 -65 -27 -66 -48 -27 -19
35 -36 46 -36 23 0 -6 6 -19 14 -27 17 -20 38 -81 27 -81 -4 0 -14 11 -21 24
-13 25 -38 41 -49 31 -3 -3 0 -14 7 -23 42 -57 43 -75 10 -158 -16 -43 -31
-80 -33 -82 -1 -1 -17 11 -35 28 -34 32 -45 36 -55 20 -3 -5 10 -26 30 -45 19
-20 35 -43 35 -53 0 -12 -5 -9 -18 11 -9 15 -22 27 -29 27 -17 0 -17 0 12 -52
15 -27 22 -52 18 -66 -5 -21 -8 -19 -49 25 -24 25 -47 43 -51 40 -4 -4 7 -22
25 -40 37 -39 57 -86 42 -101 -7 -7 -10 -7 -10 1 0 15 -70 87 -77 79 -4 -3 5
-19 20 -34 26 -27 54 -88 45 -98 -3 -2 -27 18 -55 46 -28 27 -56 50 -64 50 -8
-1 2 -15 22 -33 54 -47 98 -127 71 -127 -4 0 -14 15 -20 34 -7 19 -20 40 -28
47 -10 8 -7 -1 6 -25 32 -53 19 -55 -15 -2 -41 65 -110 100 -197 100 -86 0
-74 14 20 24 76 7 101 25 44 30 -41 4 -128 -14 -166 -33 -41 -22 -45 -10 -5
15 41 25 122 50 161 50 27 0 37 13 19 24 -12 8 -108 -11 -143 -28 -22 -12 -28
-12 -28 -2 0 15 67 43 128 52 23 4 42 11 42 16 0 10 -56 5 -120 -9 -20 -4 -23
-3 -13 7 6 7 35 15 63 18 41 4 50 8 45 20 -3 8 0 19 6 23 19 11 0 29 -32 29
-16 0 -29 5 -29 11 0 11 17 9 68 -6 18 -6 22 -3 22 13 0 15 -9 22 -30 27 -17
4 -30 11 -30 16 0 12 7 11 32 -2 11 -6 22 -8 25 -5 3 3 -7 11 -23 17 -18 7
-24 13 -16 16 8 3 19 0 25 -6 16 -16 37 -14 37 4 0 8 -11 17 -25 21 -28 7 -27
6 -19 28 8 22 18 20 54 -10 17 -15 34 -23 38 -19 4 4 -11 22 -33 41 -50 42
-38 44 22 4 49 -33 53 -35 53 -20 0 6 -16 20 -35 32 -59 34 -31 33 31 -1 54
-31 74 -35 59 -11 -4 6 -31 25 -61 42 -30 17 -53 33 -50 35 8 8 79 -18 118
-43 23 -15 39 -20 43 -13 10 16 -12 36 -66 60 -27 13 -49 26 -49 30 0 12 89
-17 110 -36 13 -12 20 -13 25 -4 10 15 -25 43 -92 70 -29 12 -50 26 -48 29 7
11 86 -6 128 -26 20 -10 40 -14 44 -10 10 10 -11 22 -82 48 -33 13 -53 24 -43
26 9 2 33 -4 53 -12 44 -19 45 -19 45 -7 0 5 -21 18 -47 30 -46 20 -46 21 -13
16 19 -3 57 -19 84 -36 27 -16 51 -27 54 -24 7 7 -22 28 -85 62 -45 24 -66 43
-49 43 18 0 166 -53 171 -60 8 -12 25 -13 25 -2 0 12 -85 56 -135 72 -22 7
-44 17 -50 22 -15 16 92 2 165 -21 89 -28 71 -2 -21 30 -41 14 -81 28 -89 32
-28 13 96 -3 138 -17 23 -9 42 -11 42 -6 0 5 -33 20 -72 32 l-73 23 44 3 c23
2 57 -2 74 -7 16 -6 36 -11 44 -11 23 0 4 20 -20 21 -12 0 -40 7 -62 15 -30
10 -32 12 -10 8 17 -3 38 -7 49 -11 12 -3 17 -1 14 8 -2 7 -27 18 -54 25 -41
10 -44 12 -18 13 17 0 51 -6 74 -14 49 -17 69 -19 54 -6 -5 5 -38 18 -74 29
-58 18 -61 20 -30 21 19 0 52 -4 73 -10z m-133 -18 c0 -17 -35 -51 -78 -76
-16 -9 25 76 42 87 20 14 36 8 36 -11z m1173 -93 c15 -6 27 -14 27 -19 0 -4
-16 -1 -35 7 -19 7 -50 14 -70 14 -48 0 -132 -34 -166 -66 -30 -28 -52 -27
-29 1 57 69 183 98 273 63z m-878 -58 c63 -66 303 -142 453 -144 50 0 92 -4
92 -7 0 -11 -58 -19 -133 -19 -58 0 -77 -4 -106 -24 -34 -23 -40 -23 -99 -14
-55 10 -65 9 -82 -7 -13 -11 -18 -25 -14 -37 8 -26 -17 -23 -106 12 -89 35
-109 37 -138 10 -28 -26 -28 -32 3 -68 25 -30 105 -59 233 -83 56 -10 64 -10
82 6 11 10 20 30 20 46 l0 27 53 -15 c33 -10 105 -16 202 -18 l150 -2 24 -47
c14 -27 20 -51 15 -56 -12 -10 -187 -38 -289 -45 -287 -19 -393 -26 -411 -30
-24 -5 -36 -27 -28 -50 13 -33 73 -40 329 -39 l251 0 -30 -27 -31 -27 20 -22
c19 -21 25 -22 138 -15 l118 7 -21 -40 c-18 -34 -27 -41 -63 -46 -81 -13 -110
-54 -66 -95 12 -11 16 -22 11 -25 -11 -6 -195 -24 -372 -35 -58 -3 -213 -3
-345 1 -132 3 -248 4 -258 2 -26 -8 -40 -40 -27 -64 10 -18 8 -20 -21 -20 -28
0 -31 2 -24 22 4 13 10 46 12 75 5 57 17 66 65 49 36 -13 54 3 86 77 l26 59
50 -6 c28 -3 89 -8 136 -12 77 -6 87 -4 103 13 25 29 11 52 -40 66 -31 8 -48
19 -54 33 -10 27 -23 36 -74 50 -46 12 -46 12 -10 113 29 81 25 113 -14 126
-29 9 -26 29 9 78 16 23 34 64 40 91 6 27 18 63 27 80 9 17 21 40 26 51 6 11
17 32 25 48 17 34 22 34 57 -3z m852 24 c19 -5 83 -96 83 -117 0 -3 -13 -8
-30 -12 -17 -4 -30 -13 -30 -22 0 -12 7 -14 28 -9 47 11 55 11 59 0 2 -7 -6
-14 -19 -17 -34 -9 -62 -32 -54 -45 5 -9 13 -8 29 2 55 35 59 33 129 -72 l66
-99 -41 -9 c-62 -14 -59 -33 3 -20 42 8 53 8 60 -4 11 -17 -3 -24 -70 -34 -25
-4 -52 -11 -60 -16 -24 -15 -4 -23 32 -12 18 6 52 13 75 16 39 6 42 4 62 -29
15 -25 17 -37 8 -39 -74 -19 -157 -52 -157 -63 0 -17 4 -16 70 7 30 11 69 19
87 20 27 0 35 -6 57 -46 14 -26 26 -48 26 -50 0 -1 -24 0 -54 3 -30 3 -66 3
-81 -1 -46 -12 -22 -29 42 -30 39 -1 70 -8 88 -20 30 -20 28 -34 -3 -17 -34
18 -128 13 -176 -10 -44 -20 -87 -71 -102 -119 l-7 -25 -13 30 c-19 43 -17 50
16 88 17 19 30 37 30 41 0 14 -26 4 -52 -21 -15 -14 -31 -24 -34 -20 -7 7 38
54 75 78 16 10 21 18 14 22 -6 4 -31 -8 -55 -26 l-44 -34 -23 66 -23 66 21 13
c23 15 29 42 9 42 -6 0 -20 -7 -30 -17 -17 -15 -18 -15 -19 3 -2 32 2 48 17
65 8 8 14 21 14 27 0 18 -37 14 -44 -4 -3 -8 -10 -12 -16 -9 -15 9 -12 19 11
44 12 13 18 29 15 38 -6 14 -10 13 -30 -6 l-24 -22 -6 26 c-4 14 -36 94 -71
178 -36 84 -65 158 -65 165 0 21 16 13 29 -15 7 -16 28 -51 46 -79 19 -28 84
-151 146 -275 61 -123 113 -226 115 -228 2 -2 7 -1 10 2 4 4 -7 33 -24 65 -67
126 -247 540 -239 549 3 2 20 -23 37 -56 18 -34 37 -61 41 -61 15 0 10 13 -26
80 -19 36 -35 68 -35 73 0 8 75 9 107 1z m-237 -147 c0 -2 34 -86 76 -188 42
-101 99 -238 126 -304 27 -66 67 -155 89 -197 21 -42 39 -79 39 -82 0 -13 -67
-38 -162 -61 -183 -44 -790 -70 -1040 -45 -134 14 -148 17 -148 36 0 11 5 14
18 9 9 -3 135 -9 279 -12 261 -6 396 0 707 33 115 12 291 46 304 59 3 3 -25
63 -33 73 -2 2 -27 -4 -56 -12 -67 -19 -226 -39 -240 -30 -21 12 7 23 101 38
123 20 170 34 170 50 0 20 -10 25 -34 17 -49 -18 -96 -22 -96 -8 0 8 21 19 54
27 l53 13 -15 39 c-13 32 -19 38 -36 34 -24 -7 -136 -21 -241 -31 -96 -8 -74
11 34 30 107 19 201 45 201 57 0 18 -31 69 -39 63 -5 -2 -62 -14 -127 -25
-195 -33 -664 -40 -664 -9 0 5 36 9 80 9 216 0 668 45 691 68 4 4 -12 49 -35
100 -41 92 -41 92 -71 85 -16 -5 -91 -7 -165 -6 -106 1 -153 7 -220 25 -47 13
-83 27 -80 33 3 6 10 8 15 6 6 -2 46 -10 90 -18 112 -21 375 -10 375 16 0 3
-48 4 -106 3 -103 -4 -201 4 -191 15 3 3 59 6 124 7 65 2 131 8 147 15 27 11
27 12 13 35 -15 23 -13 36 5 36 4 0 8 -1 8 -3z m-621 -152 c35 -15 91 -32 124
-39 57 -12 80 -27 59 -40 -9 -5 -215 43 -264 63 -19 7 -28 18 -28 32 0 26 15
24 109 -16z m-177 -126 c-1 -13 -18 -60 -38 -104 -19 -44 -36 -84 -37 -90 -1
-5 31 -14 71 -19 51 -7 72 -14 72 -23 0 -10 -8 -13 -27 -9 -70 13 -148 17
-138 8 18 -18 98 -40 193 -52 50 -7 92 -17 92 -22 0 -11 -131 -1 -225 18 -38
8 -73 14 -76 14 -4 0 -21 -38 -40 -85 -18 -47 -37 -85 -42 -85 -15 0 -1 54 37
144 19 44 58 138 87 209 49 116 78 156 71 96z m-477 -89 c-3 -5 -19 -10 -36
-10 -16 0 -29 5 -29 10 0 6 16 10 36 10 21 0 33 -4 29 -10z m65 -262 c83 -42
130 -143 99 -211 -11 -24 -69 -66 -69 -50 0 5 -16 7 -35 5 l-35 -4 0 49 c0 27
-7 58 -15 69 -12 18 -12 24 1 42 46 66 124 -25 95 -109 -14 -39 -7 -48 18 -25
68 62 10 181 -108 221 -85 29 -201 13 -207 -28 -3 -19 -36 -66 -47 -67 -12 0
1 40 22 70 29 42 78 60 161 60 59 0 86 -5 120 -22z m1860 12 c41 -12 67 -27
59 -35 -3 -3 -23 2 -45 11 -50 21 -110 13 -177 -23 -77 -43 -98 -107 -51 -162
31 -37 18 -41 -20 -6 -37 34 -36 89 4 143 52 72 137 98 230 72z m-1931 -59
c27 -17 6 -36 -37 -33 -36 3 -46 -1 -86 -38 -42 -39 -76 -48 -76 -21 0 18 54
74 85 87 34 15 94 18 114 5z m1928 -16 c47 -20 73 -43 73 -66 0 -28 -21 -34
-39 -12 -32 39 -68 55 -117 51 -52 -3 -72 15 -32 31 35 14 74 13 115 -4z
m-149 -47 c7 -7 12 -34 12 -60 0 -41 -3 -48 -20 -48 -24 0 -40 28 -40 73 0 47
21 62 48 35z m116 -51 c67 -88 97 -247 47 -247 -24 0 -43 30 -81 125 -36 90
-40 155 -11 155 11 0 31 -15 45 -33z m-1902 -34 c-4 -74 -91 -291 -100 -251
-5 26 15 115 42 181 13 32 20 60 15 63 -14 8 -80 -141 -93 -208 -12 -63 -26
-77 -26 -25 1 121 87 293 143 285 19 -3 22 -9 19 -45z"/>
<path d="M2300 511 c0 -32 69 -163 83 -158 17 6 10 32 -27 106 -34 68 -56 88
-56 52z"/>
</g>
</svg>
